<svg class="animated" id="freepik_stories-rhinoplasty" xmlns="http://www.w3.org/2000/svg" viewBox="0 0 500 500" version="1.1" xmlns:xlink="http://www.w3.org/1999/xlink" xmlns:svgjs="http://svgjs.com/svgjs"><style>svg#freepik_stories-rhinoplasty:not(.animated) .animable {opacity: 0;}svg#freepik_stories-rhinoplasty.animated #freepik--Clipboard--inject-6 {animation: 3s Infinite  linear heartbeat;animation-delay: 0s;}svg#freepik_stories-rhinoplasty.animated #freepik--Character--inject-6 {animation: 3s Infinite  linear floating;animation-delay: 0s;}            @keyframes heartbeat {                0% {                    transform: scale(1);                }                10% {                    transform: scale(1.1);                }                30% {                    transform: scale(1);                }                40% {                    transform: scale(1);                }                50% {                    transform: scale(1.1);                }                60% {                    transform: scale(1);                }                100% {                    transform: scale(1);                }            }                    @keyframes floating {                0% {                    opacity: 1;                    transform: translateY(0px);                }                50% {                    transform: translateY(-10px);                }                100% {                    opacity: 1;                    transform: translateY(0px);                }            }        </style><g id="freepik--background-complete--inject-6" class="animable" style="transform-origin: 250px 228.23px;"><rect y="382.4" width="500" height="0.25" style="fill: rgb(235, 235, 235); transform-origin: 250px 382.525px;" id="elrqotl8l6ms8" class="animable"></rect><rect x="416.78" y="398.49" width="33.12" height="0.25" style="fill: rgb(235, 235, 235); transform-origin: 433.34px 398.615px;" id="elc4j2ll2c12p" class="animable"></rect><rect x="322.53" y="401.21" width="8.69" height="0.25" style="fill: rgb(235, 235, 235); transform-origin: 326.875px 401.335px;" id="ela8kxqk78moa" class="animable"></rect><rect x="396.59" y="389.21" width="19.19" height="0.25" style="fill: rgb(235, 235, 235); transform-origin: 406.185px 389.335px;" id="el0c5adllx1fft" class="animable"></rect><rect x="52.46" y="390.89" width="43.19" height="0.25" style="fill: rgb(235, 235, 235); transform-origin: 74.055px 391.015px;" id="el0zlialls7r4d" class="animable"></rect><rect x="104.56" y="390.89" width="6.33" height="0.25" style="fill: rgb(235, 235, 235); transform-origin: 107.725px 391.015px;" id="el6fqcree96h7" class="animable"></rect><rect x="131.47" y="395.11" width="93.68" height="0.25" style="fill: rgb(235, 235, 235); transform-origin: 178.31px 395.235px;" id="elfyxlv90fpob" class="animable"></rect><path d="M237,337.8H43.91a5.71,5.71,0,0,1-5.7-5.71V60.66A5.71,5.71,0,0,1,43.91,55H237a5.71,5.71,0,0,1,5.71,5.71V332.09A5.71,5.71,0,0,1,237,337.8ZM43.91,55.2a5.46,5.46,0,0,0-5.45,5.46V332.09a5.46,5.46,0,0,0,5.45,5.46H237a5.47,5.47,0,0,0,5.46-5.46V60.66A5.47,5.47,0,0,0,237,55.2Z" style="fill: rgb(235, 235, 235); transform-origin: 140.46px 196.4px;" id="elgtnpjjcv88i" class="animable"></path><path d="M453.31,337.8H260.21a5.72,5.72,0,0,1-5.71-5.71V60.66A5.72,5.72,0,0,1,260.21,55h193.1A5.71,5.71,0,0,1,459,60.66V332.09A5.71,5.71,0,0,1,453.31,337.8ZM260.21,55.2a5.47,5.47,0,0,0-5.46,5.46V332.09a5.47,5.47,0,0,0,5.46,5.46h193.1a5.47,5.47,0,0,0,5.46-5.46V60.66a5.47,5.47,0,0,0-5.46-5.46Z" style="fill: rgb(235, 235, 235); transform-origin: 356.75px 196.4px;" id="elowsp0lrnhd" class="animable"></path><polygon points="307.62 93.12 297.74 93.12 297.74 83.24 291.44 83.24 291.44 93.12 281.56 93.12 281.56 99.42 291.44 99.42 291.44 109.3 297.74 109.3 297.74 99.42 307.62 99.42 307.62 93.12" style="fill: rgb(240, 240, 240); transform-origin: 294.59px 96.27px;" id="elgou0skl8tlf" class="animable"></polygon><polygon points="355.13 324.15 345.25 324.15 345.25 314.27 338.95 314.27 338.95 324.15 329.07 324.15 329.07 330.44 338.95 330.44 338.95 340.33 345.25 340.33 345.25 330.44 355.13 330.44 355.13 324.15" style="fill: rgb(240, 240, 240); transform-origin: 342.1px 327.3px;" id="eln3ueepmr84p" class="animable"></polygon><polygon points="94.41 152.4 84.52 152.4 84.52 142.52 78.23 142.52 78.23 152.4 68.35 152.4 68.35 158.69 78.23 158.69 78.23 168.57 84.52 168.57 84.52 158.69 94.41 158.69 94.41 152.4" style="fill: rgb(240, 240, 240); transform-origin: 81.38px 155.545px;" id="eljd3j8mfj0kp" class="animable"></polygon><polygon points="115.31 297.03 105.43 297.03 105.43 287.14 99.14 287.14 99.14 297.03 89.26 297.03 89.26 303.32 99.14 303.32 99.14 313.2 105.43 313.2 105.43 303.32 115.31 303.32 115.31 297.03" style="fill: rgb(240, 240, 240); transform-origin: 102.285px 300.17px;" id="el78j1n9zmqov" class="animable"></polygon><polygon points="361.18 119.99 356.27 119.99 356.27 115.08 353.15 115.08 353.15 119.99 348.24 119.99 348.24 123.11 353.15 123.11 353.15 128.02 356.27 128.02 356.27 123.11 361.18 123.11 361.18 119.99" style="fill: rgb(240, 240, 240); transform-origin: 354.71px 121.55px;" id="el0ua37lcsr2ub" class="animable"></polygon><polygon points="432.5 187.27 427.59 187.27 427.59 182.36 424.46 182.36 424.46 187.27 419.56 187.27 419.56 190.4 424.46 190.4 424.46 195.3 427.59 195.3 427.59 190.4 432.5 190.4 432.5 187.27" style="fill: rgb(240, 240, 240); transform-origin: 426.03px 188.83px;" id="elxthcdsi4oy" class="animable"></polygon><polygon points="428.43 296.94 423.52 296.94 423.52 292.04 420.39 292.04 420.39 296.94 415.49 296.94 415.49 300.07 420.39 300.07 420.39 304.98 423.52 304.98 423.52 300.07 428.43 300.07 428.43 296.94" style="fill: rgb(240, 240, 240); transform-origin: 421.96px 298.51px;" id="el2e2qlji8fle" class="animable"></polygon><polygon points="121.51 88.27 116.6 88.27 116.6 83.37 113.48 83.37 113.48 88.27 108.57 88.27 108.57 91.4 113.48 91.4 113.48 96.31 116.6 96.31 116.6 91.4 121.51 91.4 121.51 88.27" style="fill: rgb(240, 240, 240); transform-origin: 115.04px 89.84px;" id="eljjzjx6oc8ji" class="animable"></polygon><polygon points="121.14 351.84 116.23 351.84 116.23 346.93 113.1 346.93 113.1 351.84 108.19 351.84 108.19 354.97 113.1 354.97 113.1 359.88 116.23 359.88 116.23 354.97 121.14 354.97 121.14 351.84" style="fill: rgb(240, 240, 240); transform-origin: 114.665px 353.405px;" id="eln8k92rajy4a" class="animable"></polygon><polygon points="416.97 106.33 409.63 106.33 409.63 98.98 404.95 98.98 404.95 106.33 397.61 106.33 397.61 111 404.95 111 404.95 118.34 409.63 118.34 409.63 111 416.97 111 416.97 106.33" style="fill: rgb(240, 240, 240); transform-origin: 407.29px 108.66px;" id="elsmol5os9vhs" class="animable"></polygon><polygon points="406.58 262.75 399.24 262.75 399.24 255.4 394.56 255.4 394.56 262.75 387.22 262.75 387.22 267.42 394.56 267.42 394.56 274.76 399.24 274.76 399.24 267.42 406.58 267.42 406.58 262.75" style="fill: rgb(240, 240, 240); transform-origin: 396.9px 265.08px;" id="elxhlyz3y78te" class="animable"></polygon><polygon points="290.34 370.96 284.31 370.96 284.31 364.94 280.47 364.94 280.47 370.96 274.45 370.96 274.45 374.8 280.47 374.8 280.47 380.83 284.31 380.83 284.31 374.8 290.34 374.8 290.34 370.96" style="fill: rgb(240, 240, 240); transform-origin: 282.395px 372.885px;" id="el4d403laplps" class="animable"></polygon><path d="M250.14,159.14a60.69,60.69,0,0,0-8.71-20.95l7.5-9.06-16-16-9.06,7.5a60.5,60.5,0,0,0-21-8.71l-1.1-11.68H179.11L178,111.89a60.5,60.5,0,0,0-20.95,8.71L148,113.1l-16,16,7.5,9.06a60.69,60.69,0,0,0-8.71,20.95l-11.68,1.1v22.68l11.68,1.1A60.64,60.64,0,0,0,139.47,205L132,214l16,16,9.06-7.5A60.69,60.69,0,0,0,178,231.27l1.1,11.67h22.68l1.1-11.67a60.69,60.69,0,0,0,21-8.71l9.06,7.5,16-16-7.5-9.06A60.64,60.64,0,0,0,250.14,184l11.67-1.1V160.24Zm-29,12.44a30.7,30.7,0,1,1-30.7-30.7A30.71,30.71,0,0,1,221.15,171.58Z" style="fill: rgb(240, 240, 240); transform-origin: 190.46px 171.59px;" id="elxn0al6rfwp" class="animable"></path><path d="M315.18,268l.79,8.4h16.29l.79-8.39a43.6,43.6,0,0,0,15.05-6.26l6.51,5.39,11.52-11.52-5.38-6.51A43.47,43.47,0,0,0,367,234l8.39-.79v-16.3l-8.39-.79a43.47,43.47,0,0,0-6.25-15.05l5.38-6.51-11.52-11.52-6.51,5.39a43.6,43.6,0,0,0-15.05-6.26l-.79-8.38H316l-.79,8.39a43.68,43.68,0,0,0-15.05,6.26l-6.51-5.39L282.1,194.59l5.39,6.51a43.49,43.49,0,0,0-6.26,15.05l-8.39.79v16.3l8.39.79a43.49,43.49,0,0,0,6.26,15.05l-5.39,6.51,11.52,11.52,6.51-5.39A43.47,43.47,0,0,0,315.18,268Zm8.94-20.82a22.06,22.06,0,1,1,22.05-22.06A22.06,22.06,0,0,1,324.12,247.15Z" style="fill: rgb(240, 240, 240); transform-origin: 324.115px 225.095px;" id="elzyy2vf3vvff" class="animable"></path><path d="M228.65,382.07h19.4l.94-10a51.88,51.88,0,0,0,17.92-7.45l7.75,6.41,13.72-13.71L282,349.59a51.77,51.77,0,0,0,7.45-17.92l10-.94v-19.4l-10-.94A51.69,51.69,0,0,0,282,292.47l6.42-7.75L274.66,271l-7.75,6.42A51.69,51.69,0,0,0,249,270l-.94-10h-19.4l-.94,10a51.72,51.72,0,0,0-17.91,7.45L202.05,271l-13.72,13.72,6.42,7.75a51.5,51.5,0,0,0-7.45,17.92l-10,.94v19.4l10,.94a51.45,51.45,0,0,0,7.45,17.91l-6.42,7.76,13.72,13.71,7.75-6.41a51.91,51.91,0,0,0,17.91,7.45Zm9.7-34.78A26.26,26.26,0,1,1,264.62,321,26.26,26.26,0,0,1,238.35,347.29Z" style="fill: rgb(240, 240, 240); transform-origin: 238.375px 321.035px;" id="elh1qn7ce8vo6" class="animable"></path></g><g id="freepik--Shadow--inject-6" class="animable" style="transform-origin: 250px 416.24px;"><ellipse id="freepik--path--inject-6" cx="250" cy="416.24" rx="193.89" ry="11.32" style="fill: rgb(245, 245, 245); transform-origin: 250px 416.24px;" class="animable"></ellipse></g><g id="freepik--Scissors--inject-6" class="animable" style="transform-origin: 318.274px 352.385px;"><path d="M357,344c1.86,9.42.77,14.67-12,19.44-.57.21-1.15.42-1.77.63a189.2,189.2,0,0,1-22.4,5.64L221.32,390c-7.5,1.53-14,5.74-17.61,11.37-.2.29-.38.58-.55.87a9.6,9.6,0,0,0,.83.59c5.56,3.78,13.18,5.09,20.67,3.56l99.46-20.3c18.8-3.84,29.05-4.73,35-2.73a10.05,10.05,0,0,1,1.37.57c4.21,2,5.82,5.88,7,11.63,3,14.27,19.5,23.47,37.37,20.17,18.61-3.44,31.32-18.64,28-33.44-2.67-12-15.36-19.81-30-19.9a41.88,41.88,0,0,0-8.75.87,43.36,43.36,0,0,0,6.79-2c14.31-5.51,23.71-18.11,21.37-30.71-2.77-14.89-20.42-23.9-38.89-19.77C365.71,314.75,354.15,329.67,357,344Zm68.71,40.16c2.3,11.24-7.24,22.71-21.24,25.57s-27.25-4-29.55-15.2,7.23-22.7,21.23-25.56S423.39,372.9,425.68,384.13ZM415,331.66c2.3,11.24-7.24,22.72-21.24,25.57s-27.25-4-29.55-15.2,7.23-22.7,21.23-25.56S412.68,320.43,415,331.66Z" style="fill: rgb(0, 255, 136); transform-origin: 318.274px 363.089px;" id="elod9tyw2owo" class="animable"></path><g id="el5ya0exqj1qe"><circle cx="352.78" cy="371.85" r="3.86" style="opacity: 0.2; transform-origin: 352.78px 371.85px; transform: rotate(-56.4695deg);" class="animable"></circle></g><g id="el6xt1hpk8mpe"><g style="opacity: 0.1; transform-origin: 274.055px 383.11px;" class="animable"><path d="M344.94,363.41l-2.4,7.28a7.52,7.52,0,0,1-5.62,5L204,402.81a9.6,9.6,0,0,1-.83-.59c.17-.29.35-.58.55-.87l132.09-27a7.46,7.46,0,0,0,5.59-5l1.78-5.39C343.79,363.83,344.37,363.62,344.94,363.41Z" id="elm1im7nh44f" class="animable" style="transform-origin: 274.055px 383.11px;"></path></g></g><g id="elbuv2ybn79gn"><path d="M394.17,363.24a43.36,43.36,0,0,0,6.79-2l-31.81,6.49a9.93,9.93,0,0,0-7.55,6.95l-2.52,8.64a10.05,10.05,0,0,1,1.37.57l2.47-8.41a9.15,9.15,0,0,1,6.94-6.38l33.06-6.75A41.88,41.88,0,0,0,394.17,363.24Z" style="opacity: 0.1; transform-origin: 381px 372.565px;" class="animable"></path></g><path d="M420.18,294.91c2.59,12.67-8.75,23.5-9.29,24a3,3,0,0,1-4.08-4.34c.16-.15,11.49-11.05,6.48-21.59a3,3,0,1,1,5.38-2.55A19.4,19.4,0,0,1,420.18,294.91Z" style="fill: rgb(0, 255, 136); transform-origin: 413.338px 303.931px;" id="elo1u3htqb9j" class="animable"></path></g><g id="freepik--Clipboard--inject-6" class="animable animator-active" style="transform-origin: 190.82px 291.425px;"><path d="M125,416.38H279.52a4.18,4.18,0,0,0,4.23-4.71L260.24,178.41a5.33,5.33,0,0,0-5.18-4.71H100.49a4.18,4.18,0,0,0-4.23,4.71l23.51,233.26A5.33,5.33,0,0,0,125,416.38Z" style="fill: rgb(38, 50, 56); transform-origin: 190.005px 295.04px;" id="eloh3nsm890j" class="animable"></path><g id="el8rwmm5xdgmc"><path d="M126.58,416.38H281.15a4.18,4.18,0,0,0,4.23-4.71L261.87,178.41a5.33,5.33,0,0,0-5.18-4.71H102.12a4.18,4.18,0,0,0-4.23,4.71L121.4,411.67A5.33,5.33,0,0,0,126.58,416.38Z" style="fill: rgb(255, 255, 255); opacity: 0.4; transform-origin: 191.635px 295.04px;" class="animable"></path></g><path d="M155.87,191.38H206.5a3.36,3.36,0,0,0,3.4-3.79l-1.41-14a.77.77,0,0,0-.75-.67H150.91a.59.59,0,0,0-.61.67l1.41,14A4.29,4.29,0,0,0,155.87,191.38Z" style="fill: rgb(38, 50, 56); transform-origin: 180.111px 182.15px;" id="elks9kd3uo05" class="animable"></path><path d="M175.27,170.26l.6,5.88h7.57l-.6-5.88a4.28,4.28,0,0,0-4.16-3.79A3.37,3.37,0,0,0,175.27,170.26Zm2.29.32a1.36,1.36,0,0,1,1.38-1.53,1.73,1.73,0,0,1,1.68,1.53,1.35,1.35,0,0,1-1.37,1.53A1.73,1.73,0,0,1,177.56,170.58Z" style="fill: rgb(38, 50, 56); transform-origin: 179.342px 171.305px;" id="eldqqurroyvac" class="animable"></path><g id="elv7rro7jucx"><path d="M155.87,191.38H206.5a3.36,3.36,0,0,0,3.4-3.79l-1.41-14a.77.77,0,0,0-.75-.67H150.91a.59.59,0,0,0-.61.67l1.41,14A4.29,4.29,0,0,0,155.87,191.38Z" style="fill: rgb(255, 255, 255); opacity: 0.2; transform-origin: 180.111px 182.15px;" class="animable"></path></g><polygon points="127.35 409.61 280.66 409.61 258.39 180.99 105.08 180.99 127.35 409.61" style="fill: rgb(255, 255, 255); transform-origin: 192.87px 295.3px;" id="el9zziecrpf9" class="animable"></polygon><g id="elmmvmdjm7cx8"><polygon points="260.67 204.42 107.36 204.42 105.08 180.99 258.39 180.99 260.67 204.42" style="opacity: 0.2; transform-origin: 182.875px 192.705px;" class="animable"></polygon></g><polygon points="174.18 277.86 126.8 277.86 121.02 218.45 168.4 218.45 174.18 277.86" style="fill: rgb(0, 255, 136); transform-origin: 147.6px 248.155px;" id="el55qkng6607n" class="animable"></polygon><g id="elsqtpw1rt46"><path d="M126.12,270.8a65.17,65.17,0,0,1,18.53-4.46c9.48-.63,25.81,4.15,26.95,5.19s2.58,6.33,2.58,6.33H126.8Z" style="fill: rgb(255, 255, 255); opacity: 0.6; transform-origin: 150.15px 272.072px;" class="animable"></path></g><path d="M138.38,248.31c1.79,5.76,4.15,16.33.56,20.27,5.8,2.25,10,3.76,15.13,7.9,1.25-3.58,2.78-8.23,2.78-8.23-6.61-1.43-7-6.21-6.39-10.72Z" style="fill: rgb(235, 179, 118); transform-origin: 147.615px 262.395px;" id="elhob0tnbmv7n" class="animable"></path><g id="el1z02qhgryhhh"><path d="M143.3,252.07l7.15,5.45a17.28,17.28,0,0,0-.18,3.2c-2.5-.31-6.18-3-6.74-5.53A8.66,8.66,0,0,1,143.3,252.07Z" style="opacity: 0.2; transform-origin: 146.85px 256.395px;" class="animable"></path></g><path d="M154.13,231.26c2.28,2.42,2.49,6.13,2.82,8.51s1,5.46-2.32,2.19S146.84,225.26,154.13,231.26Z" style="fill: rgb(38, 50, 56); transform-origin: 153.718px 236.558px;" id="elz70h4xiirf8" class="animable"></path><path d="M136.22,242.23c1.79,7.93.88,9.27,5.53,13.05,7,5.68,17,6.23,17.11-1.93.09-7.34-1.32-20.53-9.56-23.11S134.43,234.31,136.22,242.23Z" style="fill: rgb(235, 179, 118); transform-origin: 147.395px 244.597px;" id="elyagl933z2qn" class="animable"></path><path d="M137.91,247.57c4.15-.14,3.41-1.81,3.12-2.2-1.24-1.71-.29-4.22.68-7.48s-5.91-7-10.51-5.61C127,233.57,131,247.8,137.91,247.57Z" style="fill: rgb(38, 50, 56); transform-origin: 135.643px 239.777px;" id="elwspan469jle" class="animable"></path><path d="M133.49,247.79a8.34,8.34,0,0,0,4.26,3.64c2.26.78,3.09-1.38,2.21-3.73-.79-2.12-2.92-5.08-5.07-4.84S132.25,245.66,133.49,247.79Z" style="fill: rgb(235, 179, 118); transform-origin: 136.562px 247.219px;" id="elkaav0eb7eb" class="animable"></path><path d="M130.75,228.85c1.39-2.67,15.21-4.9,21-3,3,1,3.57,3.53,3,5-2.15,5.23-6.84,2.38-6.84,2.38-6-3.19-8.68,1.89-8.68,1.89l-8.37-2A4.56,4.56,0,0,1,130.75,228.85Z" style="fill: rgb(38, 50, 56); transform-origin: 142.61px 230.13px;" id="el7oqq6n9qs1n" class="animable"></path><path d="M147.29,241.83c.1.67.53,1.19,1,1.16s.7-.59.6-1.26-.53-1.18-1-1.16S147.19,241.16,147.29,241.83Z" style="fill: rgb(38, 50, 56); transform-origin: 148.09px 241.78px;" id="elmsn35pj8ta" class="animable"></path><path d="M154.79,241.36c.1.67.53,1.18,1,1.16s.71-.59.61-1.26-.54-1.19-1-1.16S154.69,240.69,154.79,241.36Z" style="fill: rgb(38, 50, 56); transform-origin: 155.595px 241.31px;" id="elx18v94zprzb" class="animable"></path><path d="M143.35,239.54a.35.35,0,0,0,.34-.17,2.82,2.82,0,0,1,2.3-1.47.35.35,0,0,0,.36-.39.44.44,0,0,0-.42-.4,3.53,3.53,0,0,0-2.93,1.82.43.43,0,0,0,.16.55A.35.35,0,0,0,143.35,239.54Z" style="fill: rgb(38, 50, 56); transform-origin: 144.655px 238.326px;" id="elntqhybnr0ue" class="animable"></path><path d="M156.37,238.56a.38.38,0,0,0,.21-.05.37.37,0,0,0,.1-.54,4.3,4.3,0,0,0-3.13-2,.35.35,0,0,0-.38.37.42.42,0,0,0,.4.41,3.45,3.45,0,0,1,2.46,1.64A.45.45,0,0,0,156.37,238.56Z" style="fill: rgb(38, 50, 56); transform-origin: 154.963px 237.265px;" id="elzuf26t2yuc" class="animable"></path><path d="M154.48,251.13a9.84,9.84,0,0,1-5.43-1.68.3.3,0,1,1,.35-.49,9.56,9.56,0,0,0,5.17,1.56.28.28,0,0,1,.31.29.3.3,0,0,1-.29.32Z" style="fill: rgb(38, 50, 56); transform-origin: 151.902px 250.017px;" id="el4sjfwcjjv3b" class="animable"></path><path d="M152.81,241.31a21.83,21.83,0,0,1,3.84,6.39,8.11,8.11,0,0,1-3.48-.48A20.81,20.81,0,0,1,152.81,241.31Z" style="fill: rgb(213, 135, 69); transform-origin: 154.695px 244.518px;" id="elv670qu0i8yg" class="animable"></path><g id="elqq36yoz3qne"><path d="M250.19,222.4H179.72a1.36,1.36,0,0,1,0-2.71h70.47a1.36,1.36,0,1,1,0,2.71Z" style="opacity: 0.3; transform-origin: 215.072px 221.045px;" class="animable"></path></g><g id="eltdwfpcfzxc"><path d="M251.08,231.5H180.61a1.36,1.36,0,1,1,0-2.71h70.47a1.36,1.36,0,0,1,0,2.71Z" style="opacity: 0.3; transform-origin: 215.728px 230.145px;" class="animable"></path></g><g id="elb7d5u4r297c"><path d="M252,240.61H181.5a1.36,1.36,0,1,1,0-2.71H252a1.36,1.36,0,1,1,0,2.71Z" style="opacity: 0.3; transform-origin: 216.75px 239.255px;" class="animable"></path></g><g id="elcyib9f6wqyi"><path d="M252.85,249.72H182.38a1.36,1.36,0,0,1,0-2.71h70.47a1.36,1.36,0,1,1,0,2.71Z" style="opacity: 0.3; transform-origin: 217.732px 248.365px;" class="animable"></path></g><g id="elvvx4qi2t5be"><path d="M253.74,258.83H183.27a1.36,1.36,0,1,1,0-2.71h70.47a1.36,1.36,0,0,1,0,2.71Z" style="opacity: 0.3; transform-origin: 218.388px 257.475px;" class="animable"></path></g><g id="elwbbpc4cfw2j"><path d="M254.63,267.93H184.16a1.36,1.36,0,1,1,0-2.71h70.47a1.36,1.36,0,0,1,0,2.71Z" style="opacity: 0.3; transform-origin: 219.278px 266.575px;" class="animable"></path></g><g id="el5t1ut9a7cf9"><path d="M255.51,277H185a1.36,1.36,0,0,1,0-2.71h70.47a1.36,1.36,0,1,1,0,2.71Z" style="opacity: 0.3; transform-origin: 220.352px 275.645px;" class="animable"></path></g><g id="elre2kdnvxcg"><path d="M257.14,293.72H154.6a1.36,1.36,0,1,1,0-2.71H257.14a1.36,1.36,0,0,1,0,2.71Z" style="opacity: 0.3; transform-origin: 205.753px 292.365px;" class="animable"></path></g><g id="el1dx65c9jwz4"><path d="M258,302.83H129.63a1.36,1.36,0,0,1,0-2.71H258a1.36,1.36,0,1,1,0,2.71Z" style="opacity: 0.3; transform-origin: 193.932px 301.475px;" class="animable"></path></g><g id="els99y6nj5j2r"><path d="M258.91,311.94H130.52a1.36,1.36,0,0,1,0-2.72H258.91a1.36,1.36,0,1,1,0,2.72Z" style="opacity: 0.3; transform-origin: 194.715px 310.58px;" class="animable"></path></g><g id="el2nkuvk0w755"><path d="M259.8,321H131.41a1.36,1.36,0,1,1,0-2.71H259.8a1.36,1.36,0,0,1,0,2.71Z" style="opacity: 0.3; transform-origin: 195.488px 319.645px;" class="animable"></path></g><g id="elobwq8fmj9dr"><path d="M260.69,330.15H132.29a1.36,1.36,0,0,1,0-2.71h128.4a1.36,1.36,0,0,1,0,2.71Z" style="opacity: 0.3; transform-origin: 196.49px 328.795px;" class="animable"></path></g><g id="elm9s0lw93iqs"><path d="M261.57,339.26H133.18a1.36,1.36,0,0,1,0-2.71H261.57a1.36,1.36,0,1,1,0,2.71Z" style="opacity: 0.3; transform-origin: 197.492px 337.905px;" class="animable"></path></g><g id="el3hl7m0ehq88"><path d="M195.58,348.37h-62a1.36,1.36,0,1,1,0-2.72h62a1.36,1.36,0,0,1,0,2.72Z" style="opacity: 0.3; transform-origin: 164.58px 347.01px;" class="animable"></path></g><g id="elums3n1tk8z"><path d="M264.19,366.14H161.65a1.36,1.36,0,1,1,0-2.71H264.19a1.36,1.36,0,1,1,0,2.71Z" style="opacity: 0.3; transform-origin: 212.92px 364.785px;" class="animable"></path></g><g id="el6dg3z306mho"><path d="M265.08,375.25H136.69a1.36,1.36,0,1,1,0-2.71H265.08a1.36,1.36,0,1,1,0,2.71Z" style="opacity: 0.3; transform-origin: 200.885px 373.895px;" class="animable"></path></g><g id="elcjuhta98a0k"><path d="M266,384.36H137.57a1.36,1.36,0,0,1,0-2.71H266a1.36,1.36,0,0,1,0,2.71Z" style="opacity: 0.3; transform-origin: 201.785px 383.005px;" class="animable"></path></g><g id="el4h38r5dgr2i"><path d="M248.25,393.47H137.93a1.36,1.36,0,0,1,0-2.72H248.25a1.36,1.36,0,0,1,0,2.72Z" style="opacity: 0.3; transform-origin: 193.09px 392.11px;" class="animable"></path></g><path d="M205,187.92h-20.5a.81.81,0,0,1-.8-.69,3.47,3.47,0,0,0-3.33-2.87,2.6,2.6,0,0,0-1.9.77,2.65,2.65,0,0,0-.7,1.94.84.84,0,0,1-.23.6.82.82,0,0,1-.59.25h-20.5a.83.83,0,0,1-.81-.74l-1-10.15a.82.82,0,0,1,.81-.9H204a.81.81,0,0,1,.81.74l1,10.15a.81.81,0,0,1-.81.9Zm-19.86-1.63h19l-.86-8.53H156.36l.86,8.53h19a4.17,4.17,0,0,1,4.19-3.56A5.13,5.13,0,0,1,185.17,186.29Z" style="fill: rgb(38, 50, 56); transform-origin: 180.226px 182.025px;" id="elldmorignm4" class="animable"></path><g id="ely5bdtfx9ler"><g style="opacity: 0.6; transform-origin: 180.226px 182.025px;" class="animable"><path d="M205,187.92h-20.5a.81.81,0,0,1-.8-.69,3.47,3.47,0,0,0-3.33-2.87,2.6,2.6,0,0,0-1.9.77,2.65,2.65,0,0,0-.7,1.94.84.84,0,0,1-.23.6.82.82,0,0,1-.59.25h-20.5a.83.83,0,0,1-.81-.74l-1-10.15a.82.82,0,0,1,.81-.9H204a.81.81,0,0,1,.81.74l1,10.15a.81.81,0,0,1-.81.9Zm-19.86-1.63h19l-.86-8.53H156.36l.86,8.53h19a4.17,4.17,0,0,1,4.19-3.56A5.13,5.13,0,0,1,185.17,186.29Z" style="fill: rgb(255, 255, 255); transform-origin: 180.226px 182.025px;" id="eluo330eu3u4" class="animable"></path></g></g><path d="M159.29,177a1.29,1.29,0,0,0-.64-1.1H201a1.32,1.32,0,0,1,.64,1.1c.09.88-.42,1.11-.42,1.11H158.87S159.38,177.88,159.29,177Z" style="fill: rgb(38, 50, 56); transform-origin: 180.15px 177.005px;" id="el1q1l4bo8yh6" class="animable"></path><g id="elqvb30undge9"><path d="M159.29,177a1.29,1.29,0,0,0-.64-1.1H201a1.32,1.32,0,0,1,.64,1.1c.09.88-.42,1.11-.42,1.11H158.87S159.38,177.88,159.29,177Z" style="fill: rgb(255, 255, 255); opacity: 0.3; transform-origin: 180.15px 177.005px;" class="animable"></path></g></g><g id="freepik--Scalpel--inject-6" class="animable" style="transform-origin: 81.97px 316.75px;"><path d="M81.94,416.38h0a9.27,9.27,0,0,0,9.26-9.27V291.68a55.85,55.85,0,0,0-2.83-17.53H75.51a55.57,55.57,0,0,0-2.84,17.53V407.11A9.27,9.27,0,0,0,81.94,416.38Z" style="fill: rgb(0, 255, 136); transform-origin: 81.935px 345.265px;" id="elih3s1gggxb" class="animable"></path><g id="elqf2wq794afm"><path d="M81.93,416.38a9.27,9.27,0,0,0,9.28-9.26V291.68a55.3,55.3,0,0,0-2.85-17.53H83.28a55.7,55.7,0,0,1,2,14.86V404.44A9.27,9.27,0,0,1,76,413.7c-.22,0-.45,0-.66,0A9.26,9.26,0,0,0,81.93,416.38Z" style="opacity: 0.2; transform-origin: 83.275px 345.265px;" class="animable"></path></g><path d="M78.28,274.3V217.12l4,1.45a12.15,12.15,0,0,1,8.92,11.71v19.47a7.43,7.43,0,0,1-5,7l-2.12.74V274.3Z" style="fill: rgb(0, 255, 136); transform-origin: 84.74px 245.71px;" id="elmbzhjec4yj9" class="animable"></path><g id="elrj98j0m0rs"><path d="M78.28,274.3V217.13l4,1.44a12.14,12.14,0,0,1,8.92,11.71v19.47a7.42,7.42,0,0,1-5,7l-2.13.75V274.3Z" style="fill: rgb(255, 255, 255); opacity: 0.5; transform-origin: 84.74px 245.715px;" class="animable"></path></g><g id="elu3ih3zd8exl"><path d="M78.28,217.13l1.1,4A2.57,2.57,0,0,0,81,223l1.33.5a6.07,6.07,0,0,1,3.9,5.67v21.73a2.87,2.87,0,0,1-1.81,2.67l-1.46.6s.11,2.86,1.18,3.3l2.13-.75a7.42,7.42,0,0,0,5-7V230.28a12.14,12.14,0,0,0-8.92-11.71Z" style="fill: rgb(255, 255, 255); opacity: 0.2; transform-origin: 84.775px 237.3px;" class="animable"></path></g><polygon points="74.31 276.8 89.56 276.8 88.2 270.11 75.67 270.11 74.31 276.8" style="fill: rgb(38, 50, 56); transform-origin: 81.935px 273.455px;" id="elpuirhun08" class="animable"></polygon><g id="elglm1kcua04b"><polygon points="74.31 276.8 89.56 276.8 88.2 270.11 75.67 270.11 74.31 276.8" style="fill: rgb(255, 255, 255); opacity: 0.7; transform-origin: 81.935px 273.455px;" class="animable"></polygon></g><g id="el3v3rwk40gjy"><polygon points="84.85 276.8 89.56 276.8 88.2 270.11 83.51 270.11 84.85 276.8" style="opacity: 0.2; transform-origin: 86.535px 273.455px;" class="animable"></polygon></g></g><g id="freepik--medicine-bottle--inject-6" class="animable" style="transform-origin: 117.61px 367.815px;"><path d="M141.29,323H93.46l-4.85,13.35a11.18,11.18,0,0,0-.67,3.8v78a3.27,3.27,0,0,0,3.27,3.27h52.34a3.27,3.27,0,0,0,3.27-3.27v-78a11.18,11.18,0,0,0-.67-3.8Z" style="fill: rgb(0, 255, 136); transform-origin: 117.38px 372.21px;" id="eljiwouasu4en" class="animable"></path><g id="elthw21nam0as"><path d="M146.82,340.14v78a3.28,3.28,0,0,1-3.27,3.27H91.2a3.27,3.27,0,0,1-3.26-3.27v-78c0-.26,0-.5,0-.76a11,11,0,0,1,.64-3L93.46,323h47.83l4.86,13.35a11,11,0,0,1,.64,3C146.81,339.64,146.82,339.88,146.82,340.14Z" style="fill: rgb(255, 255, 255); opacity: 0.5; transform-origin: 117.38px 372.205px;" class="animable"></path></g><rect x="87.97" y="354.05" width="34.99" height="44.47" style="fill: rgb(250, 250, 250); transform-origin: 105.465px 376.285px;" id="ellcrv3jz5uxe" class="animable"></rect><g id="elawobzsy7hvn"><path d="M146.79,339.38H88a11,11,0,0,1,.64-3L93.46,323h47.83l4.86,13.35A11,11,0,0,1,146.79,339.38Z" style="fill: rgb(255, 255, 255); opacity: 0.2; transform-origin: 117.395px 331.19px;" class="animable"></path></g><rect x="88.4" y="314.21" width="58.88" height="13.02" rx="1.89" style="fill: rgb(38, 50, 56); transform-origin: 117.84px 320.72px;" id="elvy60h5trdlp" class="animable"></rect><g id="elfg9kv1sbbl"><path d="M145.43,314.21H90.26a1.85,1.85,0,0,0-1.86,1.85v9.32a1.85,1.85,0,0,0,1.86,1.85h55.17a1.85,1.85,0,0,0,1.85-1.85v-9.32A1.85,1.85,0,0,0,145.43,314.21ZM92.05,326.09H90.89V315.35h1.16Zm5.86,0H96.75V315.35h1.16Zm5.86,0h-1.16V315.35h1.16Zm5.87,0h-1.17V315.35h1.17Zm5.86,0h-1.17V315.35h1.17Zm5.86,0h-1.17V315.35h1.17Zm5.86,0h-1.17V315.35h1.17Zm5.86,0h-1.17V315.35h1.17Zm5.86,0h-1.17V315.35h1.17Zm5.86,0h-1.17V315.35h1.17Z" style="fill: rgb(255, 255, 255); opacity: 0.2; transform-origin: 117.84px 320.72px;" class="animable"></path></g></g><g id="freepik--Pills--inject-6" class="animable" style="transform-origin: 166.08px 410.233px;"><path d="M139.09,417.36a6.33,6.33,0,0,0,8.19,3.58l24.7-9.66a6.31,6.31,0,0,0-4.6-11.76l-24.7,9.66a6.32,6.32,0,0,0-3.59,8.18Z" style="fill: rgb(0, 255, 136); transform-origin: 157.321px 410.231px;" id="elcwz81e0sqxn" class="animable"></path><g id="el44q1tsc8xp2"><path d="M153.07,411.89a6.32,6.32,0,0,0,8.18,3.59l10.73-4.2a6.31,6.31,0,0,0-4.6-11.76l-10.73,4.2a6.32,6.32,0,0,0-3.58,8.17Z" style="fill: rgb(38, 50, 56); opacity: 0.7; transform-origin: 164.318px 407.498px;" class="animable"></path></g><g id="eliun8y2i9hse"><path d="M139.09,417.36a6.33,6.33,0,0,0,8.19,3.58l24.7-9.66a6.24,6.24,0,0,0,3.28-2.94,5.87,5.87,0,0,1-1.6.91L149,418.91a6.31,6.31,0,0,1-8.09-8.41c.07-.13.12-.27.2-.4a6.62,6.62,0,0,0-1.88,2.43A6.35,6.35,0,0,0,139.09,417.36Z" style="opacity: 0.1; transform-origin: 156.97px 414.856px;" class="animable"></path></g><g id="ell674qjqr2v"><path d="M144.35,412.63l18.13-7.09a1,1,0,0,0,.57-1.29h0a1,1,0,0,0-1.29-.56l-18.13,7.09a1,1,0,0,0-.57,1.29h0A1,1,0,0,0,144.35,412.63Z" style="fill: rgb(255, 255, 255); opacity: 0.3; transform-origin: 153.055px 408.16px;" class="animable"></path></g><g id="elnh84mshqcnr"><path d="M165.06,404.53a2.56,2.56,0,1,0,1.45-3.3A2.55,2.55,0,0,0,165.06,404.53Z" style="fill: rgb(255, 255, 255); opacity: 0.3; transform-origin: 167.448px 403.611px;" class="animable"></path></g><path d="M193.5,415.06a6.32,6.32,0,0,1-6.32,6.32H160.66a6.32,6.32,0,0,1,0-12.63h26.52a6.32,6.32,0,0,1,6.32,6.31Z" style="fill: rgb(0, 255, 136); transform-origin: 174.046px 415.065px;" id="el7xxld29g3w8" class="animable"></path><g id="elf3ooigk1479"><path d="M178.49,415.06a6.31,6.31,0,0,1-6.31,6.32H160.66a6.32,6.32,0,0,1,0-12.63h11.52a6.32,6.32,0,0,1,6.31,6.31Z" style="fill: rgb(255, 255, 255); opacity: 0.7; transform-origin: 166.541px 415.065px;" class="animable"></path></g><g id="elfocgkg1muz"><path d="M193.5,415.06a6.32,6.32,0,0,1-6.32,6.32H160.66a6.24,6.24,0,0,1-4.13-1.55,6.19,6.19,0,0,0,1.83.27h26.52a6.31,6.31,0,0,0,4.47-10.78c-.11-.1-.21-.21-.33-.3a6.49,6.49,0,0,1,2.63,1.58A6.3,6.3,0,0,1,193.5,415.06Z" style="opacity: 0.1; transform-origin: 175.015px 415.2px;" class="animable"></path></g><g id="elxl9ujl8gmcr"><path d="M186.89,412.57H167.42a1,1,0,0,1-1-1h0a1,1,0,0,1,1-1h19.47a1,1,0,0,1,1,1h0A1,1,0,0,1,186.89,412.57Z" style="fill: rgb(255, 255, 255); opacity: 0.3; transform-origin: 177.155px 411.57px;" class="animable"></path></g><g id="el3tr8hvvmth2"><circle cx="162.09" cy="412.57" r="2.55" style="fill: rgb(255, 255, 255); opacity: 0.3; transform-origin: 162.09px 412.57px;" class="animable"></circle></g></g><g id="freepik--Nose--inject-6" class="animable" style="transform-origin: 259.12px 180.49px;"><circle cx="259.12" cy="180.49" r="80.39" style="fill: rgb(0, 255, 136); transform-origin: 259.12px 180.49px;" id="elw909ag4odzj" class="animable"></circle><g id="elv5zko479ae"><path d="M337.63,180.49A78.55,78.55,0,1,1,259.12,102,78.51,78.51,0,0,1,337.63,180.49Z" style="fill: rgb(255, 255, 255); opacity: 0.9; transform-origin: 259.08px 180.55px;" class="animable"></path></g><path d="M303.26,208.08c-8.24,6.07-18.57,7.12-25.94,6.07S259.54,224.7,275.68,235c5.45,3.48,6.66,7.12,5.87,10.42-1.54,6.47-10.78,11.64-10.78,11.64s.35.34.93.93a79.07,79.07,0,0,1-23.17.3h0A78.52,78.52,0,0,1,237.9,104.89a21.43,21.43,0,0,0-.08,8.51c2.08,8.41,12.6,11.23,21.37,15.78s23.77,33,39.07,43.15c7.5,5,11.48,11.73,12.3,18.28A18.44,18.44,0,0,1,303.26,208.08Z" style="fill: rgb(235, 179, 118); transform-origin: 245.676px 181.945px;" id="ele2fo55z0sip" class="animable"></path><g id="eleqcaku632t6"><path d="M303.25,208.08c-8.23,6.07-18.57,7.12-25.94,6.07S259.54,224.7,275.68,235c0,0-19.13-3.67-19.11-17.41,0,0-16.06-4.41-19.2-15.19-3.05-10.49,9.4-18.11,10.11-18.54-11.87,9.05-4.55,19.39-1.15,21.78,3.64,2.54,9.62,4.91,15.54-1.13s14.85-11.69,21.88-7.43c6.4,3.87,20.21,6.66,26.81-6.46A18.45,18.45,0,0,1,303.25,208.08Z" style="opacity: 0.1; transform-origin: 273.818px 209.43px;" class="animable"></path></g><path d="M266.43,211.05s-1.15,1-4.61,1.52c4.93-2.32,4.22-4.53,7.86-6.94,5.11-3.39,10.38-1.84,11.84.63S276.36,212.73,266.43,211.05Z" style="fill: rgb(38, 50, 56); transform-origin: 271.771px 208.122px;" id="elpqqldxjwo3c" class="animable"></path><g id="elw3yeqn1x4e"><path d="M270.77,257.05s.35.34.93.93a77.94,77.94,0,0,1-12.58,1c-1.47,0-2.92,0-4.37-.12q-3.15-.17-6.22-.59c11.8-.35,19.16-12.29,21.72-14.19s8-1.33,11.3,1.32C280,251.88,270.77,257.05,270.77,257.05Z" style="opacity: 0.1; transform-origin: 265.04px 250.97px;" class="animable"></path></g><g id="el51aup91j6c9"><path d="M271.7,258a77.94,77.94,0,0,1-12.58,1c-1.47,0-2.92,0-4.37-.12,3.39-.63,13-2.33,16-1.82C270.77,257.05,271.12,257.39,271.7,258Z" style="opacity: 0.1; transform-origin: 263.225px 257.983px;" class="animable"></path></g><path d="M299.35,182.39a.39.39,0,0,1-.23-.07c-.5-.29-1-.59-1.47-.89a.45.45,0,0,1-.15-.62.45.45,0,0,1,.62-.15l1.46.9a.45.45,0,0,1-.23.83Zm-4.46-2.78a.42.42,0,0,1-.24-.07c-1-.65-2-1.3-3-1.95a.45.45,0,0,1-.12-.63.45.45,0,0,1,.62-.12c1,.65,1.95,1.3,2.94,1.94a.45.45,0,0,1,.14.62A.44.44,0,0,1,294.89,179.61Zm-5.86-4a.43.43,0,0,1-.26-.09q-1.47-1-2.88-2.07a.45.45,0,0,1,.53-.72c.94.69,1.89,1.38,2.87,2.06a.45.45,0,0,1,.1.63A.44.44,0,0,1,289,175.66Zm-5.7-4.19a.41.41,0,0,1-.27-.1q-1.43-1.1-2.79-2.19a.45.45,0,1,1,.57-.7c.9.73,1.83,1.46,2.77,2.18a.46.46,0,0,1,.08.63A.44.44,0,0,1,283.33,171.47ZM277.82,167a.48.48,0,0,1-.29-.11c-.91-.77-1.81-1.54-2.69-2.31a.45.45,0,0,1,.6-.68c.87.77,1.76,1.54,2.67,2.3a.46.46,0,0,1,.06.64A.48.48,0,0,1,277.82,167Zm-5.31-4.67a.42.42,0,0,1-.3-.12c-.89-.81-1.75-1.62-2.59-2.43a.44.44,0,0,1,0-.63.43.43,0,0,1,.63,0c.84.8,1.7,1.6,2.57,2.41a.44.44,0,0,1,0,.63A.44.44,0,0,1,272.51,162.37Zm-5.1-4.9a.44.44,0,0,1-.32-.13c-.85-.85-1.67-1.7-2.47-2.54a.45.45,0,0,1,0-.64.46.46,0,0,1,.64,0c.79.84,1.61,1.68,2.46,2.53a.44.44,0,0,1,0,.63A.42.42,0,0,1,267.41,157.47Zm-4.88-5.12a.44.44,0,0,1-.33-.15c-.81-.89-1.59-1.77-2.35-2.65a.45.45,0,1,1,.67-.59c.76.87,1.54,1.75,2.35,2.64a.44.44,0,0,1,0,.63A.42.42,0,0,1,262.53,152.35ZM257.9,147a.46.46,0,0,1-.35-.17c-.76-.93-1.51-1.85-2.22-2.76a.45.45,0,1,1,.7-.55c.71.9,1.45,1.82,2.22,2.74a.46.46,0,0,1-.06.63A.48.48,0,0,1,257.9,147Zm-4.37-5.56a.43.43,0,0,1-.36-.18c-.73-1-1.43-1.93-2.1-2.87a.45.45,0,1,1,.74-.52c.66.93,1.35,1.89,2.07,2.85a.45.45,0,0,1-.09.63A.43.43,0,0,1,253.53,141.45Zm-4.1-5.77a.43.43,0,0,1-.37-.2c-.69-1-1.33-2-1.95-3a.45.45,0,1,1,.76-.48c.61,1,1.25,1.94,1.93,2.95a.45.45,0,0,1-.12.62A.39.39,0,0,1,249.43,135.68Zm-3.8-6a.44.44,0,0,1-.38-.22c-.64-1.06-1.23-2.09-1.78-3.07a.45.45,0,0,1,.78-.44c.55,1,1.14,2,1.77,3a.45.45,0,0,1-.16.62A.46.46,0,0,1,245.63,129.71Zm-3.45-6.17a.44.44,0,0,1-.4-.25c-.6-1.14-1.13-2.21-1.59-3.18a.43.43,0,0,1,.21-.59.44.44,0,0,1,.6.21c.46,1,1,2,1.57,3.15a.44.44,0,0,1-.19.6A.36.36,0,0,1,242.18,123.54Zm-3.06-6.39a.44.44,0,0,1-.41-.27c-.9-2.11-1.3-3.29-1.32-3.34a.45.45,0,1,1,.85-.28s.41,1.19,1.3,3.26a.46.46,0,0,1-.24.59A.39.39,0,0,1,239.12,117.15Z" style="fill: rgb(255, 255, 255); transform-origin: 268.57px 147.627px;" id="eltgihef43kvm" class="animable"></path><path d="M266.07,217.56a.43.43,0,0,1-.43-.32.45.45,0,0,1,.3-.56s1.27-.38,3.3-1.19a.44.44,0,0,1,.58.24.46.46,0,0,1-.25.59c-2.07.83-3.32,1.21-3.38,1.22A.25.25,0,0,1,266.07,217.56Zm6.58-2.63a.45.45,0,0,1-.19-.85c1.05-.5,2.11-1,3.14-1.58a.45.45,0,0,1,.61.18.45.45,0,0,1-.18.61c-1,.56-2.12,1.1-3.19,1.6A.43.43,0,0,1,272.65,214.93Zm6.24-3.33a.44.44,0,0,1-.38-.22.45.45,0,0,1,.15-.62c1-.6,2-1.24,3-1.89a.45.45,0,1,1,.5.74c-1,.66-2,1.31-3,1.92A.39.39,0,0,1,278.89,211.6Zm5.86-4a.44.44,0,0,1-.36-.18.46.46,0,0,1,.08-.63c.94-.71,1.86-1.45,2.74-2.21a.45.45,0,1,1,.58.68c-.89.77-1.82,1.52-2.77,2.24A.41.41,0,0,1,284.75,207.63Zm5.36-4.61a.45.45,0,0,1-.31-.77c.84-.82,1.66-1.67,2.44-2.52a.44.44,0,0,1,.63,0,.44.44,0,0,1,0,.63c-.79.87-1.62,1.73-2.48,2.56A.42.42,0,0,1,290.11,203Zm4.74-5.24a.44.44,0,0,1-.28-.1.45.45,0,0,1-.07-.63c.72-.92,1.42-1.87,2.07-2.82a.45.45,0,1,1,.74.5c-.66,1-1.37,1.94-2.1,2.88A.48.48,0,0,1,294.85,197.78Zm4-5.84a.46.46,0,0,1-.39-.68c.59-1,1.14-2,1.64-3.09a.45.45,0,1,1,.81.39c-.51,1.06-1.07,2.12-1.67,3.15A.43.43,0,0,1,298.82,191.94Z" style="fill: rgb(255, 255, 255); transform-origin: 283.293px 202.713px;" id="el1fuis50jb3yh" class="animable"></path><path d="M270,152.82a.45.45,0,0,1-.34-.15.46.46,0,0,1,0-.64l15.93-14a.45.45,0,0,1,.59.68l-15.93,14A.46.46,0,0,1,270,152.82Z" style="fill: rgb(38, 50, 56); transform-origin: 277.933px 145.37px;" id="eligtr2bl4vk" class="animable"></path><path d="M271.75,153.53h0l-2.39-.15a.46.46,0,0,1-.31-.15.44.44,0,0,1-.11-.33l.16-2.39a.43.43,0,0,1,.47-.42.45.45,0,0,1,.42.48l-.12,1.94,1.94.13a.45.45,0,0,1,0,.89Z" style="fill: rgb(38, 50, 56); transform-origin: 270.566px 151.809px;" id="elxbeeh5gh28e" class="animable"></path><path d="M254.4,131.18A.46.46,0,0,1,254,131a.45.45,0,0,1,.17-.61l18.4-10.54a.45.45,0,1,1,.45.78l-18.4,10.54A.46.46,0,0,1,254.4,131.18Z" style="fill: rgb(38, 50, 56); transform-origin: 263.594px 125.489px;" id="elljs2kl6i51" class="animable"></path><path d="M256,132.23l-.12,0-2.31-.62a.47.47,0,0,1-.32-.56l.63-2.31a.44.44,0,0,1,.55-.31.45.45,0,0,1,.32.55l-.51,1.88,1.88.51a.45.45,0,0,1-.12.88Z" style="fill: rgb(38, 50, 56); transform-origin: 254.837px 130.331px;" id="elj4zripdrxq" class="animable"></path><path d="M291.57,170.91a.43.43,0,0,1-.26-.09.46.46,0,0,1-.1-.63l12.65-17a.45.45,0,0,1,.63-.09.46.46,0,0,1,.09.63l-12.64,17A.46.46,0,0,1,291.57,170.91Z" style="fill: rgb(38, 50, 56); transform-origin: 297.897px 161.96px;" id="elj50rvr49a9" class="animable"></path><path d="M291.07,171.59a.44.44,0,0,1-.44-.38l-.36-2.37a.45.45,0,0,1,.38-.51.44.44,0,0,1,.51.37l.29,1.93,1.92-.28a.45.45,0,1,1,.14.88l-2.37.35Z" style="fill: rgb(38, 50, 56); transform-origin: 292.109px 169.957px;" id="el2ksw2e27u16" class="animable"></path><path d="M313.4,219.67a.47.47,0,0,1-.28-.09l-17.69-13.77a.46.46,0,0,1-.08-.63.45.45,0,0,1,.63-.08l17.69,13.77a.45.45,0,0,1,.08.63A.46.46,0,0,1,313.4,219.67Z" style="fill: rgb(38, 50, 56); transform-origin: 304.552px 212.338px;" id="elskdo2pq6jba" class="animable"></path><path d="M295.33,207.76a.45.45,0,0,1-.44-.39l-.3-2.38a.45.45,0,0,1,.39-.5l2.38-.3a.45.45,0,0,1,.5.39.44.44,0,0,1-.39.5l-1.93.24.24,1.94a.45.45,0,0,1-.39.5Z" style="fill: rgb(38, 50, 56); transform-origin: 296.226px 205.973px;" id="el2ve63dah4ke" class="animable"></path><path d="M325.87,199.65a.45.45,0,0,1-.16,0l-20.92-8.05a.45.45,0,1,1,.32-.84L326,198.79a.44.44,0,0,1,.26.58A.46.46,0,0,1,325.87,199.65Z" style="fill: rgb(38, 50, 56); transform-origin: 315.386px 195.19px;" id="el0oar382tars9" class="animable"></path><path d="M305.13,193.48a.46.46,0,0,1-.41-.26l-1-2.19a.45.45,0,0,1,.23-.6l2.19-1a.45.45,0,0,1,.36.82l-1.78.79.79,1.78a.44.44,0,0,1-.23.59A.37.37,0,0,1,305.13,193.48Z" style="fill: rgb(38, 50, 56); transform-origin: 305.204px 191.444px;" id="el9oy1j2cjn1p" class="animable"></path><path d="M292.24,235.92a.47.47,0,0,1-.38-.21l-11.8-19.07a.45.45,0,0,1,.77-.47l11.8,19.06a.45.45,0,0,1-.15.62A.4.4,0,0,1,292.24,235.92Z" style="fill: rgb(38, 50, 56); transform-origin: 286.345px 225.938px;" id="eltperpa5ixan" class="animable"></path><path d="M279.45,218.47h-.1a.46.46,0,0,1-.34-.54l.55-2.34a.45.45,0,0,1,.54-.33l2.34.55a.45.45,0,1,1-.21.87l-1.9-.44-.44,1.89A.45.45,0,0,1,279.45,218.47Z" style="fill: rgb(38, 50, 56); transform-origin: 280.916px 216.859px;" id="elumcu095682g" class="animable"></path></g><g id="freepik--Character--inject-6" class="animable" style="transform-origin: 361.126px 304.203px;"><path d="M341.33,416.06H340.1l-.34-1.52-4.07,1.84h-10.3s-1.64-1.65,3.27-3a3.85,3.85,0,0,0,.7-.27c2.61-1.22,6.33-5.37,6.33-5.37h5.66a7.06,7.06,0,0,1,.46.82C342.43,409.84,343.5,412.45,341.33,416.06Z" style="fill: rgb(38, 50, 56); transform-origin: 333.877px 412.06px;" id="el25hu2y0rxlt" class="animable"></path><path d="M341.81,408.6v0c-.74-.84-4.14,2.82-6.63,4.06-2.22,1.11-4.72,1.6-5.82.47,2.61-1.22,6.73-6.58,6.73-6.58h4.54S341.55,408.07,341.81,408.6Z" style="fill: rgb(228, 137, 123); transform-origin: 335.585px 410.161px;" id="el4nq8d84e7i7" class="animable"></path><path d="M352.92,269.73s-6.29,43-7.1,64.43c-.84,22.5-7.16,57.63-10.75,71.76,1.09.94,5.38,2.66,7.94,2.37,0,0,19.89-42,17.27-69.11,16.62-49.22,10.06-68.77,10.06-68.77Z" style="fill: rgb(38, 50, 56); transform-origin: 353.343px 339.026px;" id="elng2dpa7w7e" class="animable"></path><g id="elvejb087rhys"><g style="opacity: 0.6; transform-origin: 353.343px 339.026px;" class="animable"><path d="M352.92,269.73s-6.29,43-7.1,64.43c-.84,22.5-7.16,57.63-10.75,71.76,1.09.94,5.38,2.66,7.94,2.37,0,0,19.89-42,17.27-69.11,16.62-49.22,10.06-68.77,10.06-68.77Z" style="fill: rgb(255, 255, 255); transform-origin: 353.343px 339.026px;" id="el5y4z2s24xsp" class="animable"></path></g></g><g id="eljf1ahzsje9r"><path d="M364.82,323.63c2.48-8.16,4.26-15.22,5.52-21.27-1.25-4.74-3-8.8-5.44-11.24C364.9,291.12,361.43,304.32,364.82,323.63Z" style="opacity: 0.2; transform-origin: 366.837px 307.375px;" class="animable"></path></g><path d="M379.86,416.06h-1.23l-.34-1.52-4.07,1.84h-10.3s-1.64-1.65,3.27-3a3.77,3.77,0,0,0,.69-.27c2.62-1.22,6.34-5.37,6.34-5.37h5.66s.19.29.46.82C381,409.84,382,412.45,379.86,416.06Z" style="fill: rgb(38, 50, 56); transform-origin: 372.408px 412.06px;" id="elsicobxnsuwj" class="animable"></path><path d="M380.34,408.6v0c-.75-.84-4.15,2.82-6.63,4.06-2.22,1.11-4.72,1.6-5.83.47,2.62-1.22,6.73-6.58,6.73-6.58h4.55S380.07,408.07,380.34,408.6Z" style="fill: rgb(228, 137, 123); transform-origin: 374.11px 410.161px;" id="el8coi0d067e" class="animable"></path><path d="M360.77,268.9s5.69,44,9,65.2c3.42,22.25,3.85,57.94,3,72.49,1.25.73,5.79,1.6,8.24.83,0,0,11.6-45,3.9-71.13,7-51.47-3.14-64.08-3.14-64.08Z" style="fill: rgb(38, 50, 56); transform-origin: 374.16px 338.31px;" id="el4dukx3zvzg1" class="animable"></path><g id="elpj1v48vpy1"><g style="opacity: 0.6; transform-origin: 374.16px 338.31px;" class="animable"><path d="M360.77,268.9s5.69,44,9,65.2c3.42,22.25,3.85,57.94,3,72.49,1.25.73,5.79,1.6,8.24.83,0,0,11.6-45,3.9-71.13,7-51.47-3.14-64.08-3.14-64.08Z" style="fill: rgb(255, 255, 255); transform-origin: 374.16px 338.31px;" id="eljzt2sibu4zb" class="animable"></path></g></g><path d="M328.5,234.16l-6.53-.87,4-6.12s5.78,1.13,5.07,4.08Z" style="fill: rgb(228, 137, 123); transform-origin: 326.535px 230.665px;" id="elcxpmtih2tq8" class="animable"></path><polygon points="316.89 229.18 322.12 225.09 325.97 227.17 321.97 233.29 316.89 229.18" style="fill: rgb(228, 137, 123); transform-origin: 321.43px 229.19px;" id="elkybzoi82foh" class="animable"></polygon><path d="M358.27,227.08l-2.37,17.37s-1.25,1.54-3,3.6c-.95,1.12-2.06,2.39-3.21,3.65h0c-2.9,3.19-6.05,6.34-7.6,6.92-5.9,2.2-15.1-23.67-15.47-24.72h0v0l4.47-2.71.17-.1,10.46,15.34S354,226.89,358.27,227.08Z" style="fill: rgb(0, 255, 136); transform-origin: 342.445px 242.916px;" id="elr4is0qfyppp" class="animable"></path><g id="el23pebyb9fvy"><path d="M358.27,227.08l-2.37,17.37s-1.25,1.54-3,3.6c-.95,1.12-2.06,2.39-3.21,3.65h0c-2.9,3.19-6.05,6.34-7.6,6.92-5.9,2.2-15.1-23.67-15.47-24.72h0v0l4.47-2.71.17-.1,10.46,15.34S354,226.89,358.27,227.08Z" style="fill: rgb(255, 255, 255); opacity: 0.7; transform-origin: 342.445px 242.916px;" class="animable"></path></g><g id="elmgfwzilpel8"><path d="M353.35,242.65s-.19,2.43-.48,5.4c-.95,1.12-2.06,2.39-3.21,3.65C350.07,245.61,353.35,242.65,353.35,242.65Z" style="opacity: 0.1; transform-origin: 351.505px 247.175px;" class="animable"></path></g><g id="eln3yfc2wtexh"><path d="M362.66,241.18A92.08,92.08,0,0,1,381.54,228l-1.9-.19a92.59,92.59,0,0,0-13-.44c-1.08.07-2.18.16-3.27.25h0C360.64,233.82,362.66,241.18,362.66,241.18Z" style="fill: rgb(255, 255, 255); opacity: 0.7; transform-origin: 371.74px 234.244px;" class="animable"></path></g><path d="M381.54,268.9c.59-6.68,3-18.92,7.1-31.77,1.34-4.18-.93-8.9-.93-8.9s-5.61-.15-6.17-.21l-1.9-.19a92.59,92.59,0,0,0-13-.44c-1.08.07-2.18.16-3.27.25-.35,0-4.29.07-4.63.1,0,0-5.46,6.24-5.79,11.29a89.17,89.17,0,0,0-.45,11.7c0,4.59.36,10.64.67,17.08Z" style="fill: rgb(0, 255, 136); transform-origin: 370.765px 248.114px;" id="elos4o5s7zlxc" class="animable"></path><polygon points="381.28 269.37 353.13 267.81 353.13 270.48 381.54 271.99 381.28 269.37" id="el1wnw6roltkf" class="animable" style="transform-origin: 367.335px 269.9px;"></polygon><path d="M365.44,271.54h0l-3-.15a.75.75,0,0,1-.71-.75V269a.76.76,0,0,1,.24-.55.69.69,0,0,1,.56-.19l3.09.24a.75.75,0,0,1,.68.8l-.12,1.56A.74.74,0,0,1,365.44,271.54Zm-3-2.88a.32.32,0,0,0-.23.09.33.33,0,0,0-.11.25v1.64a.33.33,0,0,0,.32.34l3,.16a.33.33,0,0,0,.35-.31l.13-1.57a.35.35,0,0,0-.31-.36l-3.09-.24Z" style="fill: rgb(255, 255, 255); transform-origin: 364.016px 269.898px;" id="elhrrfb76wtv" class="animable"></path><path d="M384.76,204s5.56-1.59,8.46,3c3.3,5.21-3.09,11.34-1.73,13.27s-1,3.72-2.22,1.62c0,0,.39,3.3-1.82,2.95s-1.73-4.57-1.73-4.57-1.51,1.47-2.39-1,4.94-6.8,5.05-9.51-3.11-2.95-3.11-2.95Z" style="fill: rgb(38, 50, 56); transform-origin: 388.709px 214.3px;" id="eluomlljry9ho" class="animable"></path><path d="M364.4,227.08s-6.17,10.74-7.59,18.69-7.47,67.92-7.47,67.92l-4-2.17,7-45.25s-1.07-23.36-.24-28.15,6.2-11,6.2-11Z" style="fill: rgb(0, 255, 136); transform-origin: 354.87px 270.385px;" id="eln84vlqrm2z" class="animable"></path><g id="elpqv8l2ea7bj"><path d="M364.4,227.08s-6.17,10.74-7.59,18.69-7.47,67.92-7.47,67.92l-4-2.17,7-45.25s-1.07-23.36-.24-28.15,6.2-11,6.2-11Z" style="fill: rgb(255, 255, 255); opacity: 0.7; transform-origin: 354.87px 270.385px;" class="animable"></path></g><path d="M367.45,226.57l-.42-.38s-6,.74-11.52,7.62l2.13,2.09L354,238.83,355.73,253s5.55-18.88,7.95-23.41A16.92,16.92,0,0,1,367.45,226.57Z" style="fill: rgb(0, 255, 136); transform-origin: 360.725px 239.595px;" id="elod8imq24ou" class="animable"></path><g id="elxc6xcjogul"><path d="M367.45,226.57l-.42-.35s-6,.71-11.52,7.59l2.13,2.09L354,238.83,355.73,253s5.55-18.88,7.95-23.41A16.92,16.92,0,0,1,367.45,226.57Z" style="fill: rgb(255, 255, 255); opacity: 0.9; transform-origin: 360.725px 239.61px;" class="animable"></path></g><path d="M386.42,254.24c-1.62,6-3.08,11.27-3.08,11.27a189.74,189.74,0,0,1,9.05,46.2l-10.85,2s-8.25-52.1-7.83-65.79,6.9-20.82,6.9-20.82l7.09,1.14s3,5.46,2.83,8.83a27.33,27.33,0,0,1-.65,3.53c-.31,1.38-.71,3-1.17,4.85-.26,1-.54,2.14-.83,3.25C387.4,250.53,386.9,252.42,386.42,254.24Z" style="fill: rgb(0, 255, 136); transform-origin: 383.042px 270.405px;" id="elekc7vf9cnm" class="animable"></path><g id="elgjoyjhdqmar"><path d="M392.39,311.7l-10.85,2s-8.24-52.08-7.82-65.78,6.88-20.82,6.88-20.82l7.1,1.14s3,5.46,2.83,8.83a9.39,9.39,0,0,1-.19,1.28c-.1.62-.27,1.38-.46,2.24-.3,1.39-.72,3.07-1.17,4.86-.26,1-.54,2.15-.83,3.25-.1.36-.19.73-.29,1.08-.38,1.5-.79,3-1.17,4.47-.31,1.13-.6,2.22-.88,3.26-1.24,4.54-2.2,8-2.2,8s.37,1.05,1,3A191.87,191.87,0,0,1,392.39,311.7Z" style="fill: rgb(255, 255, 255); opacity: 0.7; transform-origin: 383.047px 270.4px;" class="animable"></path></g><path d="M379.23,227.08s-6.87,7.58-5.34,27.49l6.71-14.32-2.43-3.91,5.69-5.33s-3-5.66-5.09-5.1Z" style="fill: rgb(0, 255, 136); transform-origin: 378.764px 240.221px;" id="elw25pusw0hm" class="animable"></path><g id="elqgn5c6qf0oo"><path d="M379.23,227.08s-6.87,7.58-5.34,27.49l6.71-14.32-2.43-3.91,5.69-5.33s-3-5.66-5.09-5.1Z" style="fill: rgb(255, 255, 255); opacity: 0.9; transform-origin: 378.764px 240.221px;" class="animable"></path></g><g id="elk3syywc4uos"><path d="M385.54,257.49c-1.24,4.54-2.2,8-2.2,8s.37,1.05,1,3a20.18,20.18,0,0,1-5.07-1.94l-3.68-6Z" style="opacity: 0.1; transform-origin: 380.565px 262.99px;" class="animable"></path></g><g id="elccbkk0tggnc"><path d="M390.34,238.33c-.1.62-.27,1.38-.46,2.24-.3,1.39-.72,3.07-1.17,4.86-.26,1-.54,2.15-.83,3.25-.1.36-.19.73-.29,1.08a24.56,24.56,0,0,1-.47-10.77Z" style="opacity: 0.1; transform-origin: 388.537px 244.045px;" class="animable"></path></g><path d="M364.93,229.23l1.58,9.44,12.41-10.86c-2.62-2.89-1-10.52.31-14.69l-3.52,2.64-5.23,3.91a9.49,9.49,0,0,1-.25,3.22c-.39,1.66-1.1,3.22-1.89,3.55Z" style="fill: rgb(228, 137, 123); transform-origin: 372.08px 225.895px;" id="elyag020oru5" class="animable"></path><g id="el0egvvomi1jcw"><path d="M370.23,222.89c2.09-.47,4.82-2.63,5.26-4.76a9.85,9.85,0,0,0,.22-2.37l-5.23,3.91A9.49,9.49,0,0,1,370.23,222.89Z" style="opacity: 0.2; transform-origin: 372.972px 219.325px;" class="animable"></path></g><path d="M378.31,225.42s-5.31,4.11-11.54,12.76c0,0-.56-8.64,1.58-11.73l-.45-.53a20.79,20.79,0,0,0-8.22,6.51l4.12-1.3,2.81,7.61,8.48-7,5.7,1S380.5,227.11,378.31,225.42Z" style="fill: rgb(0, 255, 136); transform-origin: 370.235px 232.08px;" id="elgil6tweln3" class="animable"></path><g id="el3axvxoglmra"><path d="M378.31,225.42s-5.31,4.11-11.54,12.76c0,0-.56-8.64,1.58-11.73l-.45-.53a20.79,20.79,0,0,0-8.22,6.51l4.12-1.3,2.81,7.61,8.48-7,5.7,1S380.5,227.11,378.31,225.42Z" style="fill: rgb(255, 255, 255); opacity: 0.2; transform-origin: 370.235px 232.08px;" class="animable"></path></g><path d="M367.91,195c-3,1.91-7,8.31-2.22,16.48s16.15,7.58,20.84-2.07S380.22,187.27,367.91,195Z" style="fill: rgb(38, 50, 56); transform-origin: 375.555px 204.877px;" id="elf7md31iu6n7" class="animable"></path><path d="M382.59,205.58c-1.39,6.55-1.84,9.34-5.67,12.4-5.75,4.61-13.45,1.91-14-4.81-.52-6,1.85-15.73,8.67-17.74A8.57,8.57,0,0,1,382.59,205.58Z" style="fill: rgb(228, 137, 123); transform-origin: 372.839px 207.64px;" id="el37lkgk9r8p9" class="animable"></path><path d="M373.32,192.17c-4.84.65-11.35,6.07-5,6.56.2,2,3.85,1.68,6.4.38-.24,1.5,2.49,4.17,5.73,3-1.82,1.22-1.51,6.23.84,6.31s7.34.93,5.81-7.2S378.51,191.48,373.32,192.17Z" style="fill: rgb(38, 50, 56); transform-origin: 376.535px 200.255px;" id="elhiww120bnx" class="animable"></path><path d="M374.17,206.48c-.09.55-.46,1-.81.94s-.57-.52-.48-1.07.46-1,.82-.94S374.26,205.92,374.17,206.48Z" style="fill: rgb(38, 50, 56); transform-origin: 373.526px 206.415px;" id="elixzxoiynu9g" class="animable"></path><path d="M367.27,205.59c-.09.55-.46,1-.81.94s-.57-.52-.48-1.07.46-1,.81-.94S367.36,205,367.27,205.59Z" style="fill: rgb(38, 50, 56); transform-origin: 366.625px 205.525px;" id="el6ap44z84dyb" class="animable"></path><path d="M367,204.57l-1.25-.52S366.2,205.16,367,204.57Z" style="fill: rgb(38, 50, 56); transform-origin: 366.375px 204.396px;" id="elmx0kk0a7js" class="animable"></path><path d="M369.18,207a16.54,16.54,0,0,1-2.54,3.35,2.26,2.26,0,0,0,1.88.56Z" style="fill: rgb(222, 87, 83); transform-origin: 367.91px 208.969px;" id="elszkugwf6gec" class="animable"></path><path d="M371.3,213.27a4.71,4.71,0,0,1-.92,0,.15.15,0,0,1-.13-.18.17.17,0,0,1,.18-.15,4.68,4.68,0,0,0,3.8-1.37.16.16,0,0,1,.23,0,.16.16,0,0,1,0,.23A4.91,4.91,0,0,1,371.3,213.27Z" style="fill: rgb(38, 50, 56); transform-origin: 372.378px 212.407px;" id="elrr7jg0w0tca" class="animable"></path><path d="M375.78,203.1a.29.29,0,0,1-.23-.1,2.4,2.4,0,0,0-2.11-.87.3.3,0,0,1-.35-.26.35.35,0,0,1,.29-.38,3,3,0,0,1,2.68,1.06.33.33,0,0,1-.05.46A.35.35,0,0,1,375.78,203.1Z" style="fill: rgb(38, 50, 56); transform-origin: 374.61px 202.284px;" id="elh747o3j28sr" class="animable"></path><path d="M365,201.66a.29.29,0,0,1-.22-.06.33.33,0,0,1,0-.46,3.48,3.48,0,0,1,2.73-1.37.3.3,0,0,1,.27.35.35.35,0,0,1-.36.31,2.73,2.73,0,0,0-2.15,1.1A.36.36,0,0,1,365,201.66Z" style="fill: rgb(38, 50, 56); transform-origin: 366.236px 200.716px;" id="elvggxu8h81j" class="animable"></path><path d="M373.85,205.46l-1.24-.52S373.1,206.05,373.85,205.46Z" style="fill: rgb(38, 50, 56); transform-origin: 373.23px 205.286px;" id="el0bwfq67ymp7" class="animable"></path><path d="M384,211.21a5.31,5.31,0,0,1-3.51,2.12c-1.8.23-2.34-1.59-1.53-3.27.72-1.51,2.53-3.46,4.2-2.91S385,209.77,384,211.21Z" style="fill: rgb(228, 137, 123); transform-origin: 381.605px 210.202px;" id="elmzrno5sjym" class="animable"></path><path d="M378.39,275.81l-17.89,4.1a1.45,1.45,0,0,1-1.58-.77l-10.56-23a.88.88,0,0,1,.64-1.27l17.89-4.1a1.45,1.45,0,0,1,1.58.77l10.57,23A.89.89,0,0,1,378.39,275.81Z" style="fill: rgb(38, 50, 56); transform-origin: 363.697px 265.34px;" id="elurbpi6n5nm" class="animable"></path><g id="elwnd26a5fv6"><path d="M378.39,275.81l-17.89,4.1a1.45,1.45,0,0,1-1.58-.77l-10.56-23a.88.88,0,0,1,.64-1.27l17.89-4.1a1.45,1.45,0,0,1,1.58.77l10.57,23A.89.89,0,0,1,378.39,275.81Z" style="fill: rgb(255, 255, 255); opacity: 0.2; transform-origin: 363.697px 265.34px;" class="animable"></path></g><path d="M363.65,254l-9.36,2.14a1.07,1.07,0,0,1-1.16-.56l-.78-1.71,11-2.52.78,1.71A.65.65,0,0,1,363.65,254Z" style="fill: rgb(38, 50, 56); transform-origin: 358.276px 253.755px;" id="eln8m80xjatl" class="animable"></path><path d="M358,253.48a1.2,1.2,0,0,1-1.08-.68.84.84,0,0,1,0-.74.93.93,0,0,1,.61-.46,1.2,1.2,0,0,1,1.32.65.84.84,0,0,1,0,.74.9.9,0,0,1-.61.46A1,1,0,0,1,358,253.48Zm-.24-1.36h-.12a.34.34,0,0,0-.24.17.31.31,0,0,0,0,.28.66.66,0,0,0,.71.34.37.37,0,0,0,.24-.17.31.31,0,0,0,0-.28h0A.66.66,0,0,0,357.71,252.12Z" style="fill: rgb(38, 50, 56); transform-origin: 357.885px 252.528px;" id="elk8cb6ukalfn" class="animable"></path><path d="M373,258.88l5.67,2.23.84,4c-.86,3.08-6.75,1.16-6.75,1.16l-1.31.66a1.68,1.68,0,0,1-2.42-1.37l-.29-3.7a1.69,1.69,0,0,1,.77-1.55l2-1.26A1.68,1.68,0,0,1,373,258.88Z" style="fill: rgb(228, 137, 123); transform-origin: 374.123px 262.942px;" id="elsx18hn5woam" class="animable"></path><path d="M387.71,228.27c3.83-.81,19.75,23,17.42,30.85-1.82,6.14-25.9,7.4-25.9,7.4L377.65,260l17.93-4.39-6.87-10.15a13.69,13.69,0,0,1-2.58-8.8A33.33,33.33,0,0,1,387.71,228.27Z" style="fill: rgb(0, 255, 136); transform-origin: 391.506px 247.385px;" id="el3xgvgim251x" class="animable"></path><g id="el6dd228k0jvd"><path d="M387.71,228.27c3.83-.81,19.75,23,17.42,30.85-1.82,6.14-25.9,7.4-25.9,7.4L377.65,260l17.93-4.39-6.87-10.15a13.69,13.69,0,0,1-2.58-8.8A33.33,33.33,0,0,1,387.71,228.27Z" style="fill: rgb(255, 255, 255); opacity: 0.7; transform-origin: 391.506px 247.385px;" class="animable"></path></g></g><defs>     <filter id="active" height="200%">         <feMorphology in="SourceAlpha" result="DILATED" operator="dilate" radius="2"></feMorphology>                <feFlood flood-color="#32DFEC" flood-opacity="1" result="PINK"></feFlood>        <feComposite in="PINK" in2="DILATED" operator="in" result="OUTLINE"></feComposite>        <feMerge>            <feMergeNode in="OUTLINE"></feMergeNode>            <feMergeNode in="SourceGraphic"></feMergeNode>        </feMerge>    </filter>    <filter id="hover" height="200%">        <feMorphology in="SourceAlpha" result="DILATED" operator="dilate" radius="2"></feMorphology>                <feFlood flood-color="#ff0000" flood-opacity="0.5" result="PINK"></feFlood>        <feComposite in="PINK" in2="DILATED" operator="in" result="OUTLINE"></feComposite>        <feMerge>            <feMergeNode in="OUTLINE"></feMergeNode>            <feMergeNode in="SourceGraphic"></feMergeNode>        </feMerge>            <feColorMatrix type="matrix" values="0   0   0   0   0                0   1   0   0   0                0   0   0   0   0                0   0   0   1   0 "></feColorMatrix>    </filter></defs></svg>